<?xml version="1.0" standalone="no"?> 
<!DOCTYPE svg PUBLIC "-//W3C//DTD SVG 1.1//EN" "http://www.w3.org/Graphics/SVG/1.1/DTD/svg11.dtd" >
<svg xmlns="http://www.w3.org/2000/svg">
<defs>
  <font id="sfi" horiz-adv-x="1024">
    <font-face font-family="sfi"
      units-per-em="1024" ascent="1024"
      descent="0" />
    <missing-glyph horiz-adv-x="0" />
    <glyph glyph-name="arrow-down"
      unicode="&#xF101;"
      horiz-adv-x="1024" d=" M914.7 557.2L576 218.5V959.95C576 995.35 547.3499999999999 1024 511.95 1024C476.5500000000001 1024 447.9000000000001 995.35 447.9000000000001 959.95V218.5L109.2 557.2C84.15 582.25 43.65 582.25 18.75 557.2C-6.15 532.1500000000001 -6.3 491.6500000000001 18.75 466.75L466.8 18.7C472.65 12.85 479.6999999999999 8.0500000000001 487.4999999999999 4.75C503.2499999999999 -1.7 520.8 -1.7 536.55 4.75C544.05 7.9 551.0999999999999 12.55 557.25 18.7L1005.3 466.75C1030.35 491.8 1030.35 532.3 1005.3 557.2C980.25 582.25 939.75 582.25 914.7 557.2L914.7 557.2z" />
    <glyph glyph-name="arrow-left"
      unicode="&#xF102;"
      horiz-adv-x="1024" d=" M557.25 109.3000000000001L218.55 448H960C995.4 448 1024.05 476.65 1024.05 512.05C1024.05 547.45 995.4 576.1 960 576.1H218.55L557.25 914.8C582.3 939.85 582.3 980.35 557.25 1005.25C532.2 1030.15 491.7 1030.3 466.8 1005.25L18.75 557.2C12.6 551.0500000000001 7.95 544 4.8 536.5C1.65 528.7 0 520.3 0 512.05C0 495.6999999999999 6.3 479.3499999999999 18.75 466.75L466.8 18.7C491.85 -6.3499999999999 532.3499999999999 -6.3499999999999 557.25 18.7C582.1500000000001 43.75 582.3 84.25 557.25 109.3000000000001L557.25 109.3000000000001z" />
    <glyph glyph-name="arrow-right"
      unicode="&#xF103;"
      horiz-adv-x="1024" d=" M466.8 914.8L805.5 575.95H64.05C28.65 575.95 0 547.3 0 512.05C0 476.6500000000001 28.65 448 64.05 448H805.5L466.8 109.3000000000001C441.75 84.2500000000001 441.75 43.75 466.8 18.8500000000001C491.85 -6.05 532.3499999999999 -6.1999999999998 557.25 18.8500000000001L1005.3 466.9000000000001C1011.15 472.7500000000001 1015.95 479.8000000000001 1019.25 487.6000000000001C1025.7 503.3500000000001 1025.7 520.9000000000001 1019.25 536.6500000000001C1016.1 544.1500000000001 1011.45 551.2000000000002 1005.3 557.3500000000001L557.25 1005.25C532.2 1030.3 491.7 1030.3 466.8 1005.25C441.75 980.2 441.75 939.7 466.8 914.8L466.8 914.8z" />
    <glyph glyph-name="arrow-up"
      unicode="&#xF104;"
      horiz-adv-x="1024" d=" M109.2 466.75L447.9000000000001 805.45V64C447.9000000000001 28.6 476.55 -0.05 511.95 -0.05C547.35 -0.05 576 28.6 576 64V805.45L914.7 466.75C939.75 441.7000000000001 980.25 441.7000000000001 1005.15 466.75C1030.0500000000002 491.8 1030.2 532.3 1005.15 557.2L557.25 1005.25C551.4 1011.1 544.35 1015.9 536.55 1019.2C528.75 1022.35 520.3499999999999 1024 511.95 1024C495.6 1024 479.2500000000001 1017.7 466.65 1005.25L18.75 557.2C-6.3 532.1500000000001 -6.3 491.6500000000001 18.75 466.75C43.8 441.8499999999999 84.3 441.7000000000001 109.2 466.75L109.2 466.75z" />
    <glyph glyph-name="briefcase"
      unicode="&#xF105;"
      horiz-adv-x="1126.4" d=" M409.5600000000001 819.1600000000001V870.4C409.5600000000001 884.56 415.2000000000001 897.28 424.5600000000001 906.64C433.9200000000001 916 446.6400000000001 921.64 460.8 921.64H665.64C679.8000000000001 921.64 692.52 916 701.88 906.64C711.24 897.28 716.88 884.56 716.88 870.4V819.16H409.5600000000001zM409.5600000000001 102.4V716.8H716.7600000000001V102.4H409.5600000000001zM307.2000000000001 716.8V102.4H153.6C139.44 102.4 126.72 108.04 117.36 117.4S102.36 139.4799999999999 102.36 153.6399999999999V665.56C102.36 679.72 108 692.44 117.36 701.8C126.72 711.1600000000001 139.44 716.8 153.6 716.8L307.2000000000001 716.8zM819.2400000000002 819.1600000000001V870.4C819.2400000000002 912.76 801.9600000000002 951.28 774.2400000000002 979C746.4000000000001 1006.72 708 1024 665.6400000000001 1024H460.8C418.44 1024 379.92 1006.72 352.2000000000001 979S307.2000000000001 912.76 307.2000000000001 870.4V819.16H153.6C111.24 819.16 72.72 801.88 45 774.16S0 708.04 0 665.56V153.52C0 111.16 17.28 72.6400000000001 45 44.9200000000001S111.24 -0.0799999999999 153.6 -0.0799999999999H972.8400000000001C1015.2000000000002 -0.0799999999999 1053.72 17.1999999999999 1081.4400000000003 44.9200000000001S1126.4400000000003 111.16 1126.4400000000003 153.52V665.56C1126.4400000000003 707.9200000000001 1109.1600000000003 746.44 1081.4400000000003 774.1600000000001S1015.2000000000002 819.1600000000001 972.8400000000001 819.1600000000001H819.2400000000002zM819.2400000000002 102.4V716.8H972.8400000000001C987.0000000000002 716.8 999.7200000000003 711.16 1009.0800000000002 701.8C1018.4400000000002 692.44 1024.0800000000002 679.72 1024.0800000000002 665.56V153.52C1024.0800000000002 139.36 1018.4400000000002 126.6400000000001 1009.0800000000002 117.2800000000001S986.88 102.4 972.7200000000003 102.4L819.2400000000002 102.4z" />
    <glyph glyph-name="check"
      unicode="&#xF106;"
      horiz-adv-x="1417.8461538461538" d=" M1283.2615384615387 1000.923076923077L472.6153846153846 190.0923076923077L134.4 528.3076923076923C103.5692307692308 559.1384615384616 53.7230769230769 559.1384615384616 23.0769230769231 528.3076923076923C-7.5692307692308 497.4769230769231 -7.7538461538462 447.6307692307692 23.0769230769231 416.9846153846154L416.8615384615386 23.1999999999998C447.6923076923078 -7.6307692307694 497.5384615384617 -7.6307692307694 528.1846153846154 23.1999999999998L1394.769230769231 889.6C1425.6000000000001 920.4307692307692 1425.6000000000001 970.2769230769233 1394.769230769231 1000.923076923077C1363.9384615384613 1031.5692307692307 1314.0923076923075 1031.753846153846 1283.2615384615387 1000.923076923077L1283.2615384615387 1000.923076923077z" />
    <glyph glyph-name="chevron-down"
      unicode="&#xF107;"
      horiz-adv-x="1792" d=" M37.5 805.6L805.5 37.6C855.6 -12.5 936.6 -12.5 986.4 37.6L1754.4 805.6C1804.5 855.7 1804.5 936.7 1754.4 986.5S1623.3000000000002 1036.6 1573.5 986.5L896.0999999999999 309.0999999999999L218.4 986.5C168.3 1036.6 87.3 1036.6 37.5 986.5S-12.6 855.4 37.5 805.6L37.5 805.6z" />
    <glyph glyph-name="chevron-left"
      unicode="&#xF108;"
      horiz-adv-x="585.1428571428571" d=" M563.6571428571428 124.8571428571429L176.5714285714286 511.9428571428572L563.6571428571428 899.2C592.2857142857142 927.8285714285714 592.2857142857142 974.1142857142858 563.6571428571428 1002.5714285714286S488.7428571428571 1031.2 460.2857142857143 1002.5714285714286L21.4285714285715 563.7142857142858C-7.1999999999999 535.0857142857143 -7.1999999999999 488.8000000000001 21.4285714285715 460.3428571428572L460.2857142857143 21.4857142857143C488.9142857142858 -7.1428571428571 535.2 -7.1428571428571 563.6571428571428 21.4857142857143S592.2857142857142 96.4 563.6571428571428 124.8571428571429L563.6571428571428 124.8571428571429z" />
    <glyph glyph-name="chevron-right"
      unicode="&#xF109;"
      horiz-adv-x="585.1428571428571" d=" M124.8 21.4857142857144L563.6571428571428 460.3428571428573C592.2857142857142 488.9714285714286 592.2857142857142 535.257142857143 563.6571428571428 563.7142857142858L124.8 1002.5714285714286C96.1714285714286 1031.2 49.8857142857143 1031.2 21.4285714285714 1002.5714285714286S-7.2 927.657142857143 21.4285714285714 899.2L408.5142857142858 512.1142857142858L21.4285714285714 124.8571428571429C-7.2 96.2285714285715 -7.2 49.9428571428573 21.4285714285714 21.4857142857143S96.3428571428572 -7.1428571428571 124.8 21.4857142857144L124.8 21.4857142857144z" />
    <glyph glyph-name="chevron-up"
      unicode="&#xF10A;"
      horiz-adv-x="1792" d=" M1754.3999999999999 218.5L986.3999999999997 986.5C936.2999999999998 1036.6 855.2999999999998 1036.6 805.4999999999999 986.5L37.4999999999999 218.5C-12.6000000000001 168.4 -12.6000000000001 87.4 37.4999999999999 37.6S168.5999999999999 -12.5 218.3999999999999 37.6L896.0999999999999 715L1573.5 37.5999999999999C1623.6 -12.5 1704.6 -12.5 1754.4 37.5999999999999S1804.5 168.6999999999999 1754.3999999999999 218.5L1754.3999999999999 218.5z" />
    <glyph glyph-name="cross"
      unicode="&#xF10B;"
      horiz-adv-x="1024" d=" M21.4285714285714 899.2L408.5142857142858 512.1142857142856L21.4285714285714 124.8571428571429C-7.2 96.2285714285715 -7.2 49.9428571428573 21.4285714285714 21.4857142857143S96.3428571428572 -7.1428571428571 124.8 21.4857142857143L512.0571428571428 408.5714285714286L899.1428571428571 21.4857142857143C927.7714285714284 -7.1428571428571 974.0571428571428 -7.1428571428571 1002.5142857142858 21.4857142857143C1030.9714285714285 50.1142857142856 1031.142857142857 96.4 1002.5142857142858 124.8571428571429L615.4285714285714 511.9428571428572L1002.5142857142856 899.2C1031.1428571428569 927.8285714285714 1031.1428571428569 974.1142857142858 1002.5142857142856 1002.5714285714286C973.8857142857142 1031.0285714285715 927.5999999999998 1031.2 899.1428571428571 1002.5714285714286L512.0571428571428 615.4857142857143L124.8 1002.5714285714286C96.1714285714286 1031.2 49.8857142857143 1031.2 21.4285714285714 1002.5714285714286S-7.2 927.6571428571428 21.4285714285714 899.2z" />
    <glyph glyph-name="folder"
      unicode="&#xF10C;"
      horiz-adv-x="1126.4" d=" M1126.3200000000002 153.6400000000001V716.8C1126.3200000000002 759.16 1109.0400000000002 797.6800000000001 1081.3200000000002 825.4S1015.2 870.4 972.7200000000003 870.4H539.4L452.1600000000001 1001.2C442.8 1015 427.3200000000001 1024 409.5600000000001 1024H153.6C111.24 1024 72.72 1006.72 45 979S0 912.76 0 870.4V153.6400000000001C0 111.2800000000001 17.28 72.7600000000002 45 45.0400000000001S111.24 0.0400000000001 153.6 0.0400000000001H972.8400000000001C1015.2000000000002 0.0400000000001 1053.72 17.3200000000001 1081.4400000000003 45.0400000000001S1126.3200000000002 111.2799999999999 1126.3200000000002 153.6400000000001L1126.3200000000002 153.6400000000001zM1023.96 153.6400000000001C1023.96 139.48 1018.32 126.7600000000002 1008.96 117.4000000000001S986.88 102.4 972.7200000000003 102.4H153.6C139.44 102.4 126.72 108.04 117.36 117.4S102.36 139.4799999999999 102.36 153.6399999999999V870.4C102.36 884.56 108 897.28 117.36 906.64S139.44 921.64 153.6 921.64H382.2000000000001L469.44 790.84C479.28 776.2 495.36 768.16 512.04 768.04H972.84C987 768.04 999.72 762.4 1009.08 753.04S1024.08 730.96 1024.08 716.8L1023.96 153.6400000000001z" />
    <glyph glyph-name="headphones"
      unicode="&#xF10D;"
      horiz-adv-x="1024" d=" M288 448H224V0H288C305.6 0 320 14.4 320 32V416C320 433.6 305.6 448 288 448z M736 448C718.4 448 704 433.6 704 416V32C704 14.4 718.4 0 736 0H800V448H736z M1024 512C1024 794.8 794.8 1024 512 1024S0 794.8 0 512C0 450.6 10.8 391.7000000000001 30.7 337.2000000000001C11.2 303.9 0 265.3 0 224C0 111.2000000000001 83.4 17.8 192 2.3V445.7000000000001C160.1 441.1 130.3 429.9000000000001 104.2 413.3000000000001C98.9 440 96 467.7 96 496C96 725.8 282.2 912 512 912S928 725.8 928 496C928 467.7 925.2 440 919.8 413.3C893.6999999999999 429.8 863.9 441.0999999999999 832 445.7V2.3C940.5 17.8 1024 111.1999999999999 1024 224C1024 265.3 1012.8 303.9 993.4 337.1C1013.2 391.7000000000001 1024 450.6 1024 512z" />
    <glyph glyph-name="heirarchy"
      unicode="&#xF10E;"
      horiz-adv-x="1092.2666666666667" d=" M1041.0666666666666 273.0666666666667H1024V494.9333333333334C1024 560.8533333333334 970.4533333333331 614.4 904.5333333333334 614.4H614.4V750.9333333333334H631.4666666666667C659.6266666666667 750.9333333333334 682.6666666666666 773.9733333333334 682.6666666666666 802.1333333333333V972.8C682.6666666666666 1000.96 659.6266666666667 1024 631.4666666666667 1024H460.8C432.6400000000001 1024 409.6 1000.96 409.6 972.8V802.1333333333333C409.6 773.9733333333334 432.6400000000001 750.9333333333334 460.8 750.9333333333334H477.8666666666667V614.4H187.7333333333333C121.8133333333333 614.4 68.2666666666667 560.8533333333334 68.2666666666667 494.9333333333334V273.0666666666667H51.2C23.04 273.0666666666667 0 250.0266666666667 0 221.8666666666667V51.2C0 23.0400000000001 23.04 0 51.2 0H221.8666666666667C250.0266666666667 0 273.0666666666667 23.0400000000001 273.0666666666667 51.2V221.8666666666667C273.0666666666667 250.0266666666667 250.0266666666667 273.0666666666667 221.8666666666667 273.0666666666667H204.8V477.8666666666667H477.8666666666667V273.0666666666667H460.8C432.6400000000001 273.0666666666667 409.6 250.0266666666667 409.6 221.8666666666667V51.2C409.6 23.0400000000001 432.6400000000001 0 460.8 0H631.4666666666667C659.6266666666667 0 682.6666666666666 23.0400000000001 682.6666666666666 51.2V221.8666666666667C682.6666666666666 250.0266666666667 659.6266666666667 273.0666666666667 631.4666666666667 273.0666666666667H614.4V477.8666666666667H887.4666666666667V273.0666666666667H870.4C842.24 273.0666666666667 819.2 250.0266666666667 819.2 221.8666666666667V51.2C819.2 23.0400000000001 842.24 0 870.4 0H1041.0666666666666C1069.2266666666667 0 1092.2666666666667 23.0400000000001 1092.2666666666667 51.2V221.8666666666667C1092.2666666666667 250.0266666666667 1069.2266666666667 273.0666666666667 1041.0666666666666 273.0666666666667zM204.8 68.2666666666667H68.2666666666667V204.8H204.8V68.2666666666667zM614.4 68.2666666666667H477.8666666666667V204.8H614.4V68.2666666666667zM477.8666666666667 819.2V955.7333333333333H614.4V819.2H477.8666666666667zM1024 68.2666666666667H887.4666666666667V204.8H1024V68.2666666666667z" />
    <glyph glyph-name="home"
      unicode="&#xF10F;"
      horiz-adv-x="1024" d=" M682.6666666666666 700.3022222222222L967.111111111111 444.3022222222222V0H853.3333333333333V341.3333333333334H512V0H398.2222222222222V444.3022222222222L682.6666666666666 700.3022222222221M682.6666666666666 853.3333333333334L113.7777777777778 341.3333333333334H284.4444444444445V-113.7777777777778H625.7777777777777V227.5555555555557H739.5555555555555V-113.7777777777778H1080.888888888889V341.3333333333334H1251.5555555555554L682.6666666666666 853.3333333333334z" />
    <glyph glyph-name="image"
      unicode="&#xF110;"
      horiz-adv-x="1170.2857142857142" d=" M1097.0285714285712 950.8571428571428C1097.0285714285712 950.8571428571428 1097.142857142857 950.7428571428572 1097.142857142857 950.7428571428572V73.257142857143C1097.142857142857 73.257142857143 1097.0285714285712 73.1428571428572 1097.0285714285712 73.1428571428572H73.2571428571429C73.2571428571429 73.1428571428572 73.1428571428571 73.257142857143 73.1428571428571 73.257142857143V950.7428571428572C73.1428571428571 950.7428571428572 73.2571428571429 950.8571428571428 73.2571428571429 950.8571428571428C73.2571428571429 950.8571428571428 1097.0285714285712 950.8571428571428 1097.0285714285712 950.8571428571428zM1097.142857142857 1024H73.1428571428571C32.9142857142857 1024 0 991.0857142857142 0 950.8571428571428V73.1428571428572C0 32.9142857142857 32.9142857142857 0 73.1428571428571 0H1097.142857142857C1137.3714285714286 0 1170.2857142857142 32.9142857142857 1170.2857142857142 73.1428571428572V950.8571428571428C1170.2857142857142 991.0857142857142 1137.3714285714286 1024 1097.142857142857 1024L1097.142857142857 1024z M950.8571428571428 768C950.8571428571428 707.4285714285714 901.7142857142856 658.2857142857143 841.1428571428571 658.2857142857143S731.4285714285713 707.4285714285714 731.4285714285713 768S780.5714285714286 877.7142857142858 841.1428571428571 877.7142857142858S950.8571428571428 828.5714285714286 950.8571428571428 768z M1024 146.2857142857143H146.2857142857143V292.5714285714287L402.2857142857143 731.4285714285714L694.8571428571428 365.7142857142858H768L1024 585.1428571428571V146.2857142857143z" />
    <glyph glyph-name="loader"
      unicode="&#xF111;"
      horiz-adv-x="1024" d=" M465.4909090909091 977.4181818181818V791.2C465.4909090909091 765.4545454545455 486.3272727272727 744.6181818181818 512.0727272727272 744.6181818181818C537.8181818181818 744.6181818181818 558.6545454545454 765.4545454545455 558.6545454545454 791.2V977.4181818181818C558.5454545454545 1003.1636363636364 537.7090909090908 1024 511.9636363636364 1024C486.3272727272728 1024 465.4909090909091 1003.1636363636364 465.4909090909091 977.4181818181818zM465.4909090909091 232.7636363636365V46.5454545454545C465.4909090909091 20.8 486.3272727272727 -0.0363636363636 512.0727272727272 -0.0363636363636C537.8181818181818 -0.0363636363636 558.6545454545454 20.8000000000001 558.6545454545454 46.5454545454545V232.7636363636365C558.6545454545454 258.5090909090912 537.8181818181818 279.3454545454546 512.0727272727272 279.3454545454546C486.3272727272728 279.2363636363636 465.4909090909091 258.4000000000001 465.4909090909091 232.7636363636365zM150 808.2181818181818L281.6727272727273 676.5454545454545C299.8909090909092 658.3272727272727 329.3454545454546 658.3272727272727 347.4545454545455 676.5454545454545S365.6727272727273 724.2181818181818 347.4545454545455 742.3272727272727L215.7818181818182 874C197.5636363636364 892.2181818181818 168.109090909091 892.2181818181818 150.0000000000001 874S131.7818181818182 826.3272727272728 150 808.2181818181818zM676.4727272727274 281.7454545454546L808.1454545454546 150.0727272727273C826.3636363636364 131.8545454545456 855.8181818181819 131.8545454545456 873.9272727272728 150.0727272727273C892.0363636363638 168.2909090909092 892.1454545454546 197.7454545454546 873.9272727272728 215.8545454545456L742.2545454545455 347.5272727272726C724.0363636363636 365.7454545454545 694.5818181818182 365.7454545454545 676.4727272727272 347.5272727272726C658.2545454545455 329.4181818181818 658.2545454545455 299.8545454545455 676.4727272727274 281.7454545454546zM46.5818181818182 465.4545454545455H232.8C258.5454545454546 465.4545454545455 279.3818181818182 486.2909090909091 279.3818181818182 512.0363636363636C279.3818181818182 537.7818181818182 258.5454545454546 558.6181818181817 232.8 558.6181818181817H46.5818181818182C20.8363636363636 558.5090909090909 0 537.6727272727272 0 512.0363636363636C0 486.2909090909092 20.8363636363636 465.4545454545455 46.5818181818182 465.4545454545455zM791.2363636363635 465.4545454545455H977.4545454545454C1003.2 465.4545454545455 1024.0363636363636 486.2909090909091 1024.0363636363636 512.0363636363636C1024.0363636363636 537.7818181818182 1003.2 558.6181818181817 977.4545454545454 558.6181818181817H791.2363636363635C765.4909090909089 558.6181818181817 744.6545454545454 537.7818181818182 744.6545454545454 512.0363636363636C744.7636363636365 486.2909090909092 765.5999999999999 465.4545454545455 791.2363636363635 465.4545454545455zM215.7818181818182 150.0727272727272L347.4545454545455 281.7454545454545C365.6727272727274 299.9636363636362 365.6727272727274 329.4181818181817 347.4545454545455 347.5272727272726C329.2363636363637 365.6363636363635 299.7818181818182 365.7454545454545 281.6727272727274 347.5272727272726L150 215.8545454545456C131.7818181818182 197.6363636363638 131.7818181818182 168.1818181818184 150 150.0727272727273C168.2181818181818 131.8545454545456 197.6727272727273 131.8545454545456 215.7818181818182 150.0727272727272zM742.2545454545455 676.4363636363636L873.9272727272727 808.1090909090909C892.1454545454544 826.3272727272727 892.1454545454544 855.7818181818182 873.9272727272727 873.8909090909091C855.7090909090908 892 826.2545454545455 892.1090909090909 808.1454545454544 873.8909090909091L676.4727272727274 742.2181818181818C658.2545454545456 724 658.2545454545456 694.5454545454545 676.4727272727274 676.4363636363636C694.5818181818182 658.3272727272728 724.1454545454545 658.2181818181818 742.2545454545455 676.4363636363636z" />
    <glyph glyph-name="note"
      unicode="&#xF112;"
      horiz-adv-x="1024" d=" M30 1024H32V1001C32 998.2385625 28.8659375 996 25 996S18 998.2385625 18 1001C18 1003.7615 21.1340625 1006 25 1006C26.958875 1006 28.7294375 1005.425 30 1004.49875V1016L14 1012.4444375V997C14 994.2385625 10.866 992 7 992S0 994.2385625 0 997C0 999.7615 3.134 1002 7 1002C8.958875 1002 10.7294375 1001.425 12 1000.49875V1020L30 1024z" />
    <glyph glyph-name="resource"
      unicode="&#xF113;"
      horiz-adv-x="1228.8000000000002" d=" M921.6 51.2799999999999V153.6399999999999C921.6 224.3199999999999 892.9200000000001 288.4 846.6 334.7199999999999C800.4000000000001 381.04 736.2 409.7199999999999 665.52 409.7199999999999H255.9600000000001C185.2800000000001 409.7199999999999 121.2000000000001 381.04 74.88 334.7199999999999C28.68 288.4 0 224.3200000000001 0 153.6400000000001V51.2800000000001C0 22.96 22.92 0.0400000000001 51.24 0.0400000000001S102.48 22.9600000000002 102.48 51.2800000000001V153.6400000000001C102.48 196.12 119.64 234.4000000000001 147.48 262.2400000000001S213.6 307.2400000000001 256.0800000000001 307.2400000000001H665.6400000000001C708.1200000000001 307.2400000000001 746.4000000000001 290.0800000000001 774.2400000000001 262.2400000000001C802.08 234.4000000000001 819.2400000000002 196.12 819.2400000000002 153.6400000000001V51.2800000000001C819.2400000000002 22.96 842.1600000000003 0.0400000000001 870.4800000000001 0.0400000000001C898.68 0.0400000000001 921.6 22.9599999999998 921.6 51.2799999999999L921.6 51.2799999999999zM716.76 768.04C716.76 838.7199999999999 688.0799999999999 902.8 641.76 949.12S531.4799999999999 1024 460.8 1024S326.04 995.32 279.72 949S204.72 838.6 204.72 767.92S233.4 633.16 279.72 586.8399999999999S390.12 511.8399999999999 460.8 511.8399999999999S595.5600000000001 540.52 641.8800000000001 586.8399999999999S716.76 697.36 716.76 768.04zM614.4000000000001 768.04C614.4000000000001 725.56 597.24 687.28 569.4 659.4399999999999C541.5600000000001 631.5999999999999 503.28 614.4399999999999 460.8 614.4399999999999S380.04 631.5999999999999 352.2000000000001 659.4399999999999C324.36 687.28 307.2000000000001 725.56 307.2000000000001 768.04S324.36 848.8 352.2000000000001 876.64C380.04 904.48 418.32 921.64 460.8 921.64S541.5600000000001 904.48 569.4 876.64S614.4000000000001 810.4 614.4000000000001 768.04zM1228.8000000000002 51.2799999999999V153.6399999999999C1228.8000000000002 217.3599999999999 1205.4 275.8 1166.64 320.56C1133.28 359.08 1088.4 387.6399999999999 1037.1599999999999 401.2C1009.7999999999998 408.4 981.8399999999998 392.08 974.6399999999998 364.8399999999999S983.7599999999998 309.52 1010.9999999999998 302.32C1042.0799999999997 294.04 1069.1999999999998 276.88 1089.2399999999998 253.5999999999999C1112.5199999999998 226.7199999999999 1126.4399999999998 191.8 1126.4399999999998 153.6399999999999V51.2799999999999C1126.4399999999998 22.9599999999998 1149.36 0.04 1177.6799999999998 0.04S1228.8000000000002 22.9599999999998 1228.8000000000002 51.2799999999999L1228.8000000000002 51.2799999999999zM806.5200000000001 916.48C847.6800000000002 905.92 880.5600000000001 879.88 900.6 845.9200000000001C920.64 812.08 927.84 770.6800000000001 917.28 729.52C908.28 694.24 887.88 665.2 860.7599999999999 644.9200000000001C844.68 632.9200000000001 826.1999999999998 623.9200000000001 806.2799999999999 618.76C778.9199999999998 611.56 762.5999999999999 583.5999999999999 769.7999999999998 556.24S804.9599999999999 512.56 832.3199999999999 519.76C864.9599999999999 528.28 895.44 543.04 922.08 562.96C967.32 596.8 1001.52 645.52 1016.52 704.2C1034.04 772.6 1022.1599999999999 841.84 988.7999999999998 898.12S900.4799999999998 998.08 832.0799999999999 1015.72C804.7199999999999 1022.68 776.76 1006.24 769.8 978.76S779.0400000000001 923.56 806.5200000000001 916.48L806.5200000000001 916.48z" />
    <glyph glyph-name="send"
      unicode="&#xF114;"
      horiz-adv-x="1024" d=" M1008 1017.7C1020 1009.1 1025.6999999999998 995.4 1023.4 981.1L877.2 103.4000000000001C875.5000000000001 92.5 868.6 83.4000000000001 858.9 77.7000000000002C853.8 74.8000000000001 847.5 73.1000000000001 841.2 73.1000000000001C836.6 73.1000000000001 832.1 74.2000000000002 827.5000000000001 76.0000000000002L568.6 181.7000000000002L430.3 13.1000000000001C423.4 4.5000000000002 413.2000000000001 2e-13 402.3 2e-13C398.3 2e-13 393.7000000000001 0.6000000000001 389.7000000000001 2.3000000000002C375.4000000000001 7.4000000000002 365.7000000000001 21.2000000000003 365.7000000000001 36.6000000000003V236L859.4000000000001 841.1L248.6 312.6L22.9 405.1C9.7 410.3 1.2 422.3 0 436.6C-0.6 450.3000000000001 6.3 463.5 18.3 470.3000000000001L969.2 1018.9C974.9 1022.3 981.2 1024 987.5000000000002 1024C994.9 1024 1002.2999999999998 1021.7 1008 1017.7L1008 1017.7z" />
  </font>
</defs>
</svg>
