<svg class="thumb" width="833" height="447" viewBox="0,0,833,447" xmlns="http://www.w3.org/2000/svg" xmlns:inkscape="http://www.inkscape.org/namespaces/inkscape" xmlns:sodipodi="http://sodipodi.sourceforge.net/DTD/sodipodi-0.dtd" xmlns:xlink="http://www.w3.org/1999/xlink" xmlns:ns1="http://www.inkscape.org/namespaces/inkscape" xmlns:sketch="http://www.bohemiancoding.com/sketch/ns" data-guid="5399c8c9-0104-49ce-8d5c-a49f64a5191c"><defs></defs><g><g transform="matrix(1.0622,0,0,1.0622,128.3819,0.8703)"><svg width="506.90000000000003" height="314" style="overflow: visible;"><defs><linearGradient x1="0" y1="0.5" x2="1" y2="0.5" id="linearGradientSklowqcf3kq"><stop offset="0%" stop-color="#535a5e"></stop><stop offset="100%" stop-color="#535a5e"></stop></linearGradient></defs><g transform="matrix(1,0,0,1,0,190.5)"><path d="M 54.8 0L 54.8 0L 30.4 0Q 17.9 0  11.85-5Q 5.8-10  5.8-20.4L 5.8-20.4L 5.8-51.5Q 5.8-61.9  11.85-66.95Q 17.9-72  30.4-72L 30.4-72L 54.8-72Q 56.7-72  57.55-71.15Q 58.4-70.3  58.4-68.4L 58.4-68.4L 58.4-56.3Q 58.4-54.4  57.55-53.55Q 56.7-52.7  54.8-52.7L 54.8-52.7L 34.7-52.7Q 31.6-52.7  30.1-51.45Q 28.6-50.2  28.6-47.7L 28.6-47.7L 28.6-23.9Q 28.6-21.4  30.1-20.25Q 31.6-19.1  34.7-19.1L 34.7-19.1L 54.8-19.1Q 56.7-19.1  57.55-18.25Q 58.4-17.4  58.4-15.5L 58.4-15.5L 58.4-3.6Q 58.4-1.7  57.55-0.85Q 56.7 0  54.8 0ZM 130.20000000000002-53L 130.20000000000002-18.9Q 130.20000000000002-14.3  128.85-10.55Q 127.5-6.8  124.05000000000001-4.15Q 120.6-1.5  114.55000000000001 0Q 108.5 1.5  99.2 1.5L 99.2 1.5Q 89.9 1.5  83.80000000000001 0Q 77.7-1.5  74.25-4.15Q 70.80000000000001-6.8  69.45-10.55Q 68.10000000000001-14.3  68.10000000000001-18.9L 68.10000000000001-18.9L 68.10000000000001-53Q 68.10000000000001-57.6  69.45-61.35Q 70.80000000000001-65.1  74.25-67.8Q 77.7-70.5  83.80000000000001-72Q 89.9-73.5  99.2-73.5L 99.2-73.5Q 108.5-73.5  114.55000000000001-72Q 120.6-70.5  124.05000000000001-67.8Q 127.5-65.1  128.85-61.35Q 130.20000000000002-57.6  130.20000000000002-53L 130.20000000000002-53ZM 90.80000000000001-49.4L 90.80000000000001-22.5Q 90.80000000000001-20.5  92.30000000000001-19.15Q 93.80000000000001-17.8  99.2-17.8L 99.2-17.8Q 104.6-17.8  106.1-19.15Q 107.6-20.5  107.6-22.5L 107.6-22.5L 107.6-49.4Q 107.6-51.3  106.1-52.65Q 104.6-54  99.2-54L 99.2-54Q 93.80000000000001-54  92.30000000000001-52.65Q 90.80000000000001-51.3  90.80000000000001-49.4L 90.80000000000001-49.4ZM 161.4 0L 161.4 0L 146.5 0Q 144.6 0  143.75-0.85Q 142.9-1.7  142.9-3.6L 142.9-3.6L 142.9-68.4Q 142.9-70.3  143.75-71.15Q 144.6-72  146.5-72L 146.5-72L 162.6-72Q 164.2-72  165.25-71.3Q 166.3-70.6  167.2-69L 167.2-69L 176.2-52.7Q 176.7-51.8  177.05-51.4Q 177.4-51  178-51L 178-51L 178.9-51Q 179.5-51  179.85-51.4Q 180.2-51.8  180.7-52.7L 180.7-52.7L 189.6-69Q 190.5-70.6  191.55-71.3Q 192.6-72  194.2-72L 194.2-72L 210.4-72Q 212.3-72  213.15-71.15Q 214-70.3  214-68.4L 214-68.4L 214-3.6Q 214-1.7  213.15-0.85Q 212.3 0  210.4 0L 210.4 0L 195 0Q 193.1 0  192.25-0.85Q 191.4-1.7  191.4-3.6L 191.4-3.6L 191.4-38.8L 185.5-27.9Q 184.6-26.2  183.35-25.45Q 182.1-24.7  180.2-24.7L 180.2-24.7L 176.2-24.7Q 174.3-24.7  173.05-25.45Q 171.8-26.2  170.9-27.9L 170.9-27.9L 165-38.8L 165-3.6Q 165-1.7  164.15-0.85Q 163.3 0  161.4 0ZM 246.9 0L 246.9 0L 231.4 0Q 229.5 0  228.65-0.85Q 227.8-1.7  227.8-3.6L 227.8-3.6L 227.8-68.4Q 227.8-70.3  228.65-71.15Q 229.5-72  231.4-72L 231.4-72L 262-72Q 275.6-72  280.6-66.6Q 285.6-61.2  285.6-52.5L 285.6-52.5L 285.6-39.7Q 285.6-31  280.6-25.6Q 275.6-20.2  262-20.2L 262-20.2L 250.5-20.2L 250.5-3.6Q 250.5-1.7  249.65-0.85Q 248.8 0  246.9 0ZM 259.3-53.3L 250.3-53.3L 250.3-38.2L 259.3-38.2Q 262.2-38.2  263.1-39.7Q 264-41.2  264-43.1L 264-43.1L 264-48.4Q 264-50.3  263.1-51.8Q 262.2-53.3  259.3-53.3L 259.3-53.3ZM 321.1-51L 321.1-51L 316.40000000000003-35.8L 332.1-35.8L 327.40000000000003-51Q 327-51.9  326.55-52.3Q 326.1-52.7  325.5-52.7L 325.5-52.7L 323-52.7Q 322.40000000000003-52.7  321.95000000000005-52.3Q 321.5-51.9  321.1-51ZM 315.40000000000003-17.6L 315.40000000000003-3.6Q 315.40000000000003-1.7  314.55-0.85Q 313.70000000000005 0  311.8 0L 311.8 0L 297.1 0Q 295.20000000000005 0  294.35-0.85Q 293.5-1.7  293.5-3.6L 293.5-3.6L 293.5-30Q 293.5-33  294.45000000000005-36.9Q 295.40000000000003-40.8  297.40000000000003-46L 297.40000000000003-46L 306.1-68.7Q 306.70000000000005-70.4  307.95000000000005-71.2Q 309.20000000000005-72  311.20000000000005-72L 311.20000000000005-72L 338.1-72Q 340-72  341.25-71.2Q 342.5-70.4  343.1-68.7L 343.1-68.7L 351.8-46Q 353.8-40.8  354.75-36.9Q 355.70000000000005-33  355.70000000000005-30L 355.70000000000005-30L 355.70000000000005-3.6Q 355.70000000000005-1.7  354.85-0.85Q 354 0  352.1 0L 352.1 0L 337 0Q 335 0  334.05-0.85Q 333.1-1.7  333.1-3.6L 333.1-3.6L 333.1-17.6L 315.40000000000003-17.6ZM 386.59999999999997 0L 386.59999999999997 0L 371.59999999999997 0Q 369.7 0  368.84999999999997-0.85Q 367.99999999999994-1.7  367.99999999999994-3.6L 367.99999999999994-3.6L 367.99999999999994-68.4Q 367.99999999999994-70.3  368.84999999999997-71.15Q 369.7-72  371.59999999999997-72L 371.59999999999997-72L 381.99999999999994-72Q 383.9-72  385.24999999999994-71.4Q 386.59999999999997-70.8  387.9-69.3L 387.9-69.3L 407.29999999999995-47.1L 407.29999999999995-68.4Q 407.29999999999995-70.3  408.15-71.15Q 408.99999999999994-72  410.9-72L 410.9-72L 425.9-72Q 427.79999999999995-72  428.65-71.15Q 429.5-70.3  429.5-68.4L 429.5-68.4L 429.5-3.6Q 429.5-1.7  428.65-0.85Q 427.79999999999995 0  425.9 0L 425.9 0L 410.9 0Q 408.99999999999994 0  408.15-0.85Q 407.29999999999995-1.7  407.29999999999995-3.6L 407.29999999999995-3.6L 407.29999999999995-15.9L 390.2-36.6L 390.2-3.6Q 390.2-1.7  389.34999999999997-0.85Q 388.49999999999994 0  386.59999999999997 0ZM 479.7999999999999 0L 479.7999999999999 0L 463.5999999999999 0Q 461.69999999999993 0  460.8499999999999-0.85Q 459.99999999999994-1.7  459.99999999999994-3.6L 459.99999999999994-3.6L 459.99999999999994-16.4L 444.69999999999993-36.9Q 442.3999999999999-40  441.6499999999999-42.3Q 440.8999999999999-44.6  440.8999999999999-49.2L 440.8999999999999-49.2L 440.8999999999999-68.4Q 440.8999999999999-70.3  441.74999999999994-71.15Q 442.5999999999999-72  444.49999999999994-72L 444.49999999999994-72L 459.8999999999999-72Q 461.7999999999999-72  462.6499999999999-71.15Q 463.49999999999994-70.3  463.49999999999994-68.4L 463.49999999999994-68.4L 463.49999999999994-52Q 463.49999999999994-51  463.5999999999999-49.9Q 463.69999999999993-48.8  464.3999999999999-47.8L 464.3999999999999-47.8L 468.99999999999994-40.6Q 469.49999999999994-39.7  470.0499999999999-39.3Q 470.5999999999999-38.9  471.3999999999999-38.9L 471.3999999999999-38.9L 472.3999999999999-38.9Q 473.19999999999993-38.9  473.74999999999994-39.3Q 474.2999999999999-39.7  474.7999999999999-40.6L 474.7999999999999-40.6L 479.3999999999999-47.8Q 480.0999999999999-48.8  480.19999999999993-49.9Q 480.2999999999999-51  480.2999999999999-52L 480.2999999999999-52L 480.2999999999999-68.4Q 480.2999999999999-70.3  481.1499999999999-71.15Q 481.99999999999994-72  483.8999999999999-72L 483.8999999999999-72L 498.7999999999999-72Q 500.69999999999993-72  501.54999999999995-71.15Q 502.3999999999999-70.3  502.3999999999999-68.4L 502.3999999999999-68.4L 502.3999999999999-49.2Q 502.3999999999999-44.6  501.5999999999999-42.3Q 500.79999999999995-40  498.5999999999999-36.9L 498.5999999999999-36.9L 483.3999999999999-16.3L 483.3999999999999-3.6Q 483.3999999999999-1.7  482.5499999999999-0.85Q 481.69999999999993 0  479.7999999999999 0Z" data-textpath="Company" data-text-anchor="middle" data-font-size="100" data-letterspacing="0" data-side="left" data-offset="0.5" data-dx="0" data-dy="0" data-xmlspace="preserve" data-href="" data-font="Bungee" data-font-src="/Content/clientfonts/bungee.woff" data-font-scale="contain" transform="translate(0,0)" data-x="0" data-y="0" fill="url('#linearGradientSklowqcf3kq')"></path></g></svg></g><g transform="matrix(4.5837,0,0,4.5837,349.4698,200.007)"><svg width="21.990241401138793" height="30.048623541377655" viewBox="-0.9647580015448902,-4.9853582352552035,21.990241401138793,30.048623541377655"><defs><linearGradient x1="0" y1="0.5" x2="1" y2="0.5" id="linearGradientSklowqcf32e"><stop offset="0%" stop-color="#535a5e"></stop><stop offset="100%" stop-color="#535a5e"></stop></linearGradient></defs><g><path fill="url('#linearGradientSklowqcf32e')" d="M15.5,6.9l-4.8,0.9c-0.3,0.1-0.6-0.3-0.5-0.6l1.5-6.6c0.1-0.5-0.5-0.8-0.8-0.4L4.1,11.9  c-0.2,0.4,0.1,0.8,0.4,0.8l4.8-0.9c0.3-0.1,0.6,0.3,0.5,0.7l-1.9,6.9c-0.2,0.5,0.5,0.9,0.8,0.5l7.3-12.1C16.1,7.3,15.9,6.8,15.5,6.9  z"></path></g></svg></g><g transform="matrix(0.6892,0,0,0.6892,239.7692,213.3002)"><svg width="458" height="401" style="overflow: visible;"><defs><linearGradient x1="0" y1="0.5" x2="1" y2="0.5" id="linearGradientSklowqcf3kt"><stop offset="0%" stop-color="#535a5e"></stop><stop offset="100%" stop-color="#535a5e"></stop></linearGradient></defs><g><path d="M 81.47392050433729 205.17280340821452L 81.47392050433729 205.17280340821452L 67.54316361250346 199.61096806180015Q 65.77860107287118 198.906468917921  65.3043621852974 197.80188869108693Q 64.83012329772365 196.69730846425284  65.5346224416028 194.93274592462058L 65.5346224416028 194.93274592462058L 89.56175113811292 134.75187615189844Q 90.26625028199206 132.98731361226618  91.37083050882613 132.5130747246924Q 92.4754107356602 132.03883583711863  94.23997327529247 132.74333498099776L 94.23997327529247 132.74333498099776L 103.89863138696393 136.5995408211784Q 105.66319392659622 137.30403996505757  106.69448863300471 138.3618354219082Q 107.72578333941314 139.41963087875888  108.37693206873067 141.29473229796483L 108.37693206873067 141.29473229796483L 118.16252800280911 169.10555954590814L 126.06033419471754 149.3238847595041Q 126.76483333859667 147.55932221987183  127.86941356543076 147.08508333229804Q 128.97399379226482 146.6108444447243  130.73855633189712 147.31534358860347L 130.73855633189712 147.31534358860347L 144.66931322373094 152.8771789350178Q 146.4338757633632 153.58167807889697  146.908114650937 154.68625830573103Q 147.38235353851076 155.7908385325651  146.67785439463162 157.55540107219738L 146.67785439463162 157.55540107219738L 122.6507256981215 217.73627084491955Q 121.94622655424234 219.5008333845518  120.84164632740827 219.9750722721256Q 119.7370661005742 220.44931115969933  117.97250356094193 219.7448120158202L 117.97250356094193 219.7448120158202L 104.04174666910811 214.18297666940583Q 102.27718412947581 213.47847752552667  101.80294524190204 212.3738972986926Q 101.32870635432826 211.26931707185852  102.03320549820742 209.50475453222626L 102.03320549820742 209.50475453222626L 106.5939104822672 198.0815338809225L 98.38818040362848 172.51659707527944L 86.15214264151686 203.16426223731386Q 85.4476434976377 204.92882477694613  84.34306327080365 205.4030636645199Q 83.23848304396958 205.87730255209368  81.47392050433729 205.17280340821452ZM 185.35846128393763 180.90994918672408L 185.35846128393763 180.90994918672408L 178.93582084593282 195.4660369098764L 194.53093565718962 197.27777475617697L 191.61637359673495 181.63695227154534Q 191.32290341438895 180.69680587226816  190.92206860378096 180.24754931460336Q 190.52123379317297 179.7982927569385  189.92524214433513 179.7290543679079L 189.92524214433513 179.7290543679079L 187.4419436075108 179.44056108028042Q 186.84595195867297 179.37132269124984  186.3527992960242 179.7167216653688Q 185.8596466333754 180.06212063948772  185.35846128393763 180.90994918672408ZM 175.84227029727504 213.4290529429066L 174.22670788656114 227.33552474912287Q 174.00745298796426 229.22283163710938  173.06504376765062 229.96906542183632Q 172.12263454733704 230.7152992065632  170.23532765935053 230.49604430796632L 170.23532765935053 230.49604430796632L 155.63353226282345 228.79970377671674Q 153.74622537483694 228.58044887811988  152.99999159011 227.63803965780627Q 152.25375780538306 226.69563043749267  152.47301270397995 224.80832354950616L 152.47301270397995 224.80832354950616L 155.51950182132612 198.58469100064116Q 155.8656937664791 195.60473275645197  157.2593967391712 191.84041448830445Q 158.65309971186335 188.07609622015693  161.23980457958797 183.14162989366426L 161.23980457958797 183.14162989366426L 172.50120253939414 161.59723582024293Q 173.29336962381868 159.97783120423296  174.62733674427164 159.3274223162629Q 175.96130386472458 158.67701342829287  177.94794269418406 158.90780805839483L 177.94794269418406 158.90780805839483L 204.66823495041393 162.01199583326652Q 206.55554183840044 162.2312507318634  207.7048732547718 163.1701529074609Q 208.85420467114318 164.10905508305845  209.25402088439432 165.8669364771296L 209.25402088439432 165.8669364771296L 215.2763807408855 189.41924383243818Q 216.66295353207983 194.81529941913482  217.1565574473742 198.79887258587922Q 217.6501613626686 202.78244575262363  217.30396941751562 205.76240399681282L 217.30396941751562 205.76240399681282L 214.25748030016945 231.98603654567782Q 214.03822540157256 233.87334343366433  213.09581618125895 234.61957721839124Q 212.15340696094535 235.36581100311815  210.26610007295884 235.14655610452127L 210.26610007295884 235.14655610452127L 195.26697691053985 233.4040566472513Q 193.28033808108037 233.1732620171493  192.43477235488047 232.21931306533062Q 191.58920662868056 231.2653641135119  191.80846152727744 229.37805722552542L 191.80846152727744 229.37805722552542L 193.42402393799134 215.47158541930912L 175.84227029727504 213.4290529429066ZM 262.8940756833789 233.29346416785523L 262.8940756833789 233.29346416785523L 248.13230861606357 235.31836738784483Q 246.24993563432537 235.57657652327975  245.29230679243213 234.84997690782822Q 244.33467795053892 234.1233772923768  244.076468815104 232.24100431063857L 244.076468815104 232.24100431063857L 235.2701783013237 168.04217840714637Q 235.0119691658888 166.15980542540817  235.73856878134023 165.20217658351496Q 236.4651683967917 164.24454774162172  238.3475413785299 163.9863386061868L 238.3475413785299 163.9863386061868L 254.2981755922062 161.7983559322383Q 255.88333178735417 161.5809166602931  257.01872022189605 162.13172797345632Q 258.1541086564379 162.68253928661952  259.26319828815383 164.1453858912983L 259.26319828815383 164.1453858912983L 270.3948644688027 179.07106872467642Q 271.01253537025565 179.89476931196424  271.4136481059306 180.2434935200132Q 271.81476084160545 180.5922177280622  272.40919441478593 180.51067800108274L 272.40919441478593 180.51067800108274L 273.30084477455665 180.38836841061357Q 273.89527834773713 180.30682868363414  274.18767144743947 179.86297479410914Q 274.4800645471418 179.41912090458413  274.85311626765633 178.45952077233056L 274.85311626765633 178.45952077233056L 281.45538502022526 161.1012360840656Q 282.12959610805075 159.3937702984485  283.07472517964055 158.5575699408572Q 284.0198542512304 157.72136958326593  285.60501044637834 157.50393031132074L 285.60501044637834 157.50393031132074L 301.65471692225145 155.30235768287565Q 303.5370899039896 155.04414854744076  304.4947187458829 155.77074816289223Q 305.45234758777605 156.49734777834368  305.71055672321097 158.37972076008188L 305.71055672321097 158.37972076008188L 314.5168472369913 222.5785466635741Q 314.7750563724262 224.46091964531232  314.04845675697476 225.4185484872055Q 313.3218571415233 226.3761773290988  311.43948415978514 226.6343864645337L 311.43948415978514 226.6343864645337L 296.182355781486 228.7272394570062Q 294.29998279974785 228.98544859244112  293.3423539578545 228.25884897698958Q 292.38472511596126 227.53224936153816  292.1265159805264 225.64987637979993L 292.1265159805264 225.64987637979993L 287.34285199773217 190.7764400865449L 282.9788935682507 202.37712398128826Q 282.31827243492177 204.18366202910215  281.1817938161867 205.09657842678496Q 280.0453151974517 206.00949482446774  278.1629422157135 206.26770395990263L 278.1629422157135 206.26770395990263L 274.2000517278436 206.81130213976564Q 272.3176787461054 207.06951127520054  270.97735080992175 206.49634373993212Q 269.6370228737381 205.9231762046637  268.5143432875256 204.36125733778815L 268.5143432875256 204.36125733778815L 261.1877747777909 194.36418807364058L 265.97143876058516 229.2376243668956Q 266.2296478960201 231.11999734863383  265.5030482805686 232.077626190527Q 264.77644866511713 233.0352550324203  262.8940756833789 233.29346416785523ZM 392.76542738719206 197.0490938729467L 392.76542738719206 197.0490938729467L 350.0490095830367 215.16725189137765Q 348.2998459229527 215.90915922402888  347.18541942620277 215.45854455123003Q 346.0709929294528 215.0079298784312  345.3290855968015 213.25876621834723L 345.3290855968015 213.25876621834723L 320.02614077795835 153.6030792849578Q 319.2842334453071 151.85391562487382  319.7348481181059 150.7394891281239Q 320.18546279090475 149.6250626313739  321.93462645098873 148.8831552987226L 321.93462645098873 148.8831552987226L 364.6510442551441 130.7649972802917Q 366.40020791522807 130.02308994764041  367.514634411978 130.47370462043932Q 368.629060908728 130.9243192932381  369.3709682413793 132.6734829533221L 369.3709682413793 132.6734829533221L 373.93955550033706 143.4446486496285Q 374.68146283298836 145.19381230971243  374.2308481601895 146.30823880646244Q 373.78023348739066 147.42266530321234  372.0310698273067 148.1645726358636L 372.0310698273067 148.1645726358636L 346.62216613345566 158.94175283648198L 349.6288432184108 166.03046872208543L 367.5807860455882 158.41615662382242Q 369.3299497056721 157.67424929117118  370.4443762024221 158.12486396396997Q 371.5588026991721 158.57547863676885  372.3007100318233 160.32464229685277L 372.3007100318233 160.32464229685277L 376.47881974728045 170.17519554048343Q 377.22072707993175 171.9243592005674  376.7701124071329 173.03878569731734Q 376.31949773433405 174.15321219406735  374.5703340742501 174.8951195267186L 374.5703340742501 174.8951195267186L 356.61839124707274 182.5094316249816L 359.97649812117845 190.42669871799316L 385.38540181502947 179.6495185173748Q 387.1345654751135 178.90761118472352  388.2489919718634 179.3582258575223Q 389.3634184686134 179.80884053032116  390.10532580126466 181.5580041904051L 390.10532580126466 181.5580041904051L 394.6739130602225 192.3291698867115Q 395.41582039287374 194.07833354679548  394.9652057200749 195.19276004354543Q 394.5145910472761 196.30718654029545  392.76542738719206 197.0490938729467Z" data-textpath="Name" data-text-anchor="middle" data-font-size="100" data-letterspacing="0" data-side="right" data-offset="0.5" data-dx="0" data-dy="0" data-xmlspace="preserve" data-href="" data-font="Bungee" data-font-src="/Content/clientfonts/bungee.woff" data-font-scale="contain" transform="translate(0,0)" data-x="0" data-y="0" fill="url('#linearGradientSklowqcf3kt')"></path></g></svg></g><g transform="matrix(0.269,0,0,0.269,268.8084,247.3812)"><svg width="223.5" height="191" style="overflow: visible;"><defs><linearGradient x1="0" y1="0.5" x2="1" y2="0.5" id="linearGradientSklowqcf3kk"><stop offset="0%" stop-color="#535a5e"></stop><stop offset="100%" stop-color="#535a5e"></stop></linearGradient></defs><g transform="matrix(1,0,0,1,0,98.25)"><path d="M 17.500000000000004 2.6Q 11.600000000000003 2.6  8.800000000000004-1.15Q 6.0000000000000036-4.9  6.0000000000000036-12.35Q 6.0000000000000036-19.8  12.300000000000004-54.6L 12.300000000000004-54.6L 7.0000000000000036-65.3Q 18.300000000000004-72.6  27.600000000000005-72.6L 27.600000000000005-72.6Q 33.5-72.6  34.900000000000006-67L 34.900000000000006-67Q 46.2-67.3  63.10000000000001-72.1L 63.10000000000001-72.1Q 63.900000000000006-68.8  63.900000000000006-65.6L 63.900000000000006-65.6Q 63.900000000000006-57.5  58.55-53.4Q 53.2-49.3  44.8-49.3L 44.8-49.3Q 39.10000000000001-49.3  33.60000000000001-51.7L 33.60000000000001-51.7Q 32.8-47.2  30.800000000000004-37L 30.800000000000004-37Q 34.5-36.3  37.10000000000001-36.3L 37.10000000000001-36.3Q 41.2-37.1  46.10000000000001-38.6L 46.10000000000001-38.6Q 46.60000000000001-36.9  46.60000000000001-33.05Q 46.60000000000001-29.2  43.5-26.9Q 40.400000000000006-24.6  36.55-24.6Q 32.7-24.6  28.700000000000003-25.5L 28.700000000000003-25.5Q 27.600000000000005-19.2  27.600000000000005-13.6L 27.600000000000005-13.6L 43.8-13.6Q 51.400000000000006-14.7  59.10000000000001-17.5L 59.10000000000001-17.5Q 59.7-15.7  59.7-12.6L 59.7-12.6Q 59.7-6.7  56.25-2.1Q 52.8 2.5  46.7 2.5L 46.7 2.5Q 43.5 2.5  37.35000000000001 1.25Q 31.200000000000003 0  28.200000000000003-0.3L 28.200000000000003-0.3Q 23.400000000000002 2.6  17.500000000000004 2.6ZM 103.30000000000001-72.5L 103.30000000000001-72.5Q 116.50000000000001-72.5  123.10000000000002-69.45Q 129.70000000000002-66.4  129.70000000000002-59.75Q 129.70000000000002-53.1  125.65-49.65Q 121.60000000000002-46.2  116.4-46.2Q 111.20000000000002-46.2  107.05000000000001-48.85Q 102.9-51.5  101.30000000000001-55.9L 101.30000000000001-55.9Q 97.60000000000002-55.9  94.25000000000001-53.45Q 90.9-51  90.00000000000001-47.1L 90.00000000000001-47.1Q 109.80000000000001-42.3  118.4-35.9Q 127-29.5  127-19.5Q 127-9.5  117.95000000000002-3.5Q 108.9 2.5  93.55000000000001 2.5Q 78.20000000000002 2.5  71.80000000000001-1.7Q 65.4-5.9  65.4-12.8Q 65.4-19.7  69.70000000000002-25.5L 69.70000000000002-25.5Q 71.80000000000001-21  77.75000000000001-17.4Q 83.70000000000002-13.8  89.50000000000001-13.8L 89.50000000000001-13.8Q 100.20000000000002-13.8  103.10000000000002-20.6L 103.10000000000002-20.6Q 86.50000000000001-22.8  77.80000000000001-29.85Q 69.10000000000001-36.9  69.10000000000001-46.9L 69.10000000000001-46.9Q 69.10000000000001-53.6  72.70000000000002-58.85Q 76.30000000000001-64.1  81.9-66.9L 81.9-66.9Q 92.9-72.5  103.30000000000001-72.5ZM 132-55.2L 132-55.2Q 132-63.3  136.2-67.4Q 140.39999999999998-71.5  146.25-71.5Q 152.1-71.5  162.2-69.5Q 172.29999999999998-67.5  177.39999999999998-67.4L 177.39999999999998-67.4Q 185.89999999999998-69  193.6-71.3L 193.6-71.3Q 194.39999999999998-68.7  194.39999999999998-64.8L 194.39999999999998-64.8Q 194.39999999999998-56.7  189.75-52.6Q 185.1-48.5  177.89999999999998-48.5L 177.89999999999998-48.5Q 176.1-48.5  173.1-48.7L 173.1-48.7Q 167.6-19.8  167.6-16.4L 167.6-16.4Q 167.6-6.7  170.6-1.9L 170.6-1.9Q 164.6 2.6  158.1 2.6Q 151.6 2.6  148.79999999999998-1.15Q 146-4.9  146-12.35Q 146-19.8  151.79999999999998-52.1L 151.79999999999998-52.1Q 140.5-50.6  132.79999999999998-48.7L 132.79999999999998-48.7Q 132-51.2  132-55.2ZM 206.2 2.5Q 201.29999999999998 2.5  198.25-0.55Q 195.2-3.6  195.2-8.35Q 195.2-13.1  198.89999999999998-16.9Q 202.6-20.7  207.5-20.7Q 212.39999999999998-20.7  215.45-17.65Q 218.5-14.6  218.5-9.85Q 218.5-5.1  214.79999999999998-1.3Q 211.1 2.5  206.2 2.5Z" data-textpath="EST." data-text-anchor="middle" data-font-size="100" data-letterspacing="0" data-side="left" data-offset="0.5" data-dx="0" data-dy="0" data-xmlspace="preserve" data-href="" data-font="Lemon" data-font-src="/Content/clientfonts/lemon.woff" data-font-scale="contain" transform="translate(0,0)" data-x="0" data-y="0" fill="url('#linearGradientSklowqcf3kk')"></path></g></svg></g><g transform="matrix(0.269,0,0,0.269,465.7877,247.3812)"><svg width="275.70000000000005" height="191" style="overflow: visible;"><defs><linearGradient x1="0" y1="0.5" x2="1" y2="0.5" id="linearGradientSklowqcf3kn"><stop offset="0%" stop-color="#535a5e"></stop><stop offset="100%" stop-color="#535a5e"></stop></linearGradient></defs><g transform="matrix(1,0,0,1,0,98.25)"><path d="M 24.4-3.2L 24.4-3.2Q 17.8 1.9  12.2 1.9Q 6.6 1.9  3.9-1.4Q 1.2-4.7  1.2-9.95Q 1.2-15.2  5.55-19.65Q 9.9-24.1  17.3-24.1L 17.3-24.1Q 19.6-24.1  21.8-23.6L 21.8-23.6Q 30.3-30.8  34.5-36.1Q 38.7-41.4  38.7-45.35Q 38.7-49.3  36.55-51.4Q 34.4-53.5  30.8-53.5L 30.8-53.5Q 24.9-53.5  21.4-48L 21.4-48Q 19.7-45.5  18.4-41.7L 18.4-41.7Q 13.9-42.2  11.6-44.8Q 9.3-47.4  9.3-51.3L 9.3-51.3Q 9.3-58.8  16.55-64.4Q 23.8-70  38.6-70L 38.6-70Q 50.7-70  56.75-64.25Q 62.8-58.5  62.8-51L 62.8-51Q 62.8-37.7  39.1-19.1L 39.1-19.1Q 47.7-17.7  52.6-17.7L 52.6-17.7L 64.3-22.2Q 65.4-17.6  65.4-13.8L 65.4-13.8Q 65.4-5.6  60.9-1.55Q 56.4 2.5  50 2.5Q 43.6 2.5  38.15 1.15Q 32.7-0.2  24.4-3.2ZM 77-29.5L 77-29.5Q 77-47.7  88-58.85Q 99-70  116.7-70L 116.7-70Q 121.8-70  124.8-68.5L 124.8-68.5Q 125.7-67.5  126-63.7L 126-63.7Q 134.1-61.8  137.95-55Q 141.8-48.2  141.8-38L 141.8-38Q 141.8-20.3  131.25-8.9Q 120.7 2.5  106.6 2.5Q 92.5 2.5  84.75-6.3Q 77-15.1  77-29.5ZM 96.6-28Q 96.6-20.8  99.25-16.25Q 101.9-11.7  107.2-11.7Q 112.5-11.7  116.95-19.85Q 121.4-28  121.4-38L 121.4-38Q 121.4-52.4  109.4-52.4L 109.4-52.4Q 107.5-52.4  104.7-51.9L 104.7-51.9Q 96.6-41.4  96.6-28L 96.6-28ZM 165.3-14.5L 165.3-14.5Q 165.3-20.7  169.5-41.7L 169.5-41.7Q 162.70000000000002-41.7  157.85000000000002-45.5Q 153-49.3  152-57.3L 152-57.3Q 160.10000000000002-58.9  167.35000000000002-62.15Q 174.60000000000002-65.4  179.5-67.7Q 184.4-70  188.3-70L 188.3-70Q 195.4-70  195.4-62L 195.4-62Q 195.4-57.1  191.5-39.25Q 187.60000000000002-21.4  187.60000000000002-13.75Q 187.60000000000002-6.1  190.5-1.2L 190.5-1.2Q 183.8 2.5  177.70000000000002 2.5L 177.70000000000002 2.5Q 165.3 2.5  165.3-14.5ZM 228.60000000000002-3.2L 228.60000000000002-3.2Q 222.00000000000003 1.9  216.4 1.9Q 210.8 1.9  208.10000000000002-1.4Q 205.4-4.7  205.4-9.95Q 205.4-15.2  209.75000000000003-19.65Q 214.10000000000002-24.1  221.50000000000003-24.1L 221.50000000000003-24.1Q 223.8-24.1  226.00000000000003-23.6L 226.00000000000003-23.6Q 234.50000000000003-30.8  238.70000000000002-36.1Q 242.90000000000003-41.4  242.90000000000003-45.35Q 242.90000000000003-49.3  240.75-51.4Q 238.60000000000002-53.5  235.00000000000003-53.5L 235.00000000000003-53.5Q 229.10000000000002-53.5  225.60000000000002-48L 225.60000000000002-48Q 223.9-45.5  222.60000000000002-41.7L 222.60000000000002-41.7Q 218.10000000000002-42.2  215.8-44.8Q 213.50000000000003-47.4  213.50000000000003-51.3L 213.50000000000003-51.3Q 213.50000000000003-58.8  220.75000000000003-64.4Q 228.00000000000003-70  242.8-70L 242.8-70Q 254.90000000000003-70  260.95000000000005-64.25Q 267-58.5  267-51L 267-51Q 267-37.7  243.3-19.1L 243.3-19.1Q 251.90000000000003-17.7  256.8-17.7L 256.8-17.7L 268.5-22.2Q 269.6-17.6  269.6-13.8L 269.6-13.8Q 269.6-5.6  265.1-1.55Q 260.6 2.5  254.20000000000002 2.5Q 247.8 2.5  242.35000000000002 1.15Q 236.90000000000003-0.2  228.60000000000002-3.2Z" data-textpath="2012" data-text-anchor="middle" data-font-size="100" data-letterspacing="0" data-side="left" data-offset="0.5" data-dx="0" data-dy="0" data-xmlspace="preserve" data-href="" data-font="Lemon" data-font-src="/Content/clientfonts/lemon.woff" data-font-scale="contain" transform="translate(0,0)" data-x="0" data-y="0" fill="url('#linearGradientSklowqcf3kn')"></path></g></svg></g></g></svg>